<svg version="1.2" xmlns="http://www.w3.org/2000/svg" viewBox="0 0 100 100" width="100" height="100">
	<title>cat-svg</title>
	<style>
		.s0 { fill: #020203 } 
	</style>
	<g id="Layer">
		<path id="Layer" class="s0" d="m70.7 22.6c0.5 2.8 1.1 5.4 1.8 7.8-2-1.9-5.4-4.6-10.3-6.4-3.2-1.2-6.1-1.7-8.3-1.8 0.6-2.1 1.8-4.9 4.1-7.8 4.1-5.2 9.3-7.3 11.6-8.1-0.2 4.6 0 10.1 1.1 16.3z"/>
	</g>
	<g id="Layer">
		<path id="Layer" class="s0" d="m87.1 78.5c0.3 0.2 0.9 0.7 1.9 1.2-3.1 6.7-6.5 9.9-9.9 12.7q0 0 0 0c-2.1 1.6-18.7 11.6-39.1 5.5-7.7-2.2-12.6-6-14.1-7.1-6.1-4.8-9.6-10.4-10.6-12.2-1.4-2.2-6.1-10.3-6.5-21.2-0.3-10.3 3.4-17.7 8.4-27.2 4-7.6 10.8-18.6 22.5-29.9 0.3 3.1 1 7 2.4 11.4 1.2 3.3 2.5 6.2 3.9 8.5 1.1 2 2.6 3.7 4.5 5 0.6 0.3 1.1 0.6 1.5 0.6 10.6 0.1 19.5 7 25.6 16.2-11.9-0.2-29.5 4-32.6 5q-0.9 0.3-1.8 0.5c-2.3 0.6-3.6 2-3.4 4.9l0.5 18.3c0.3 3.1 3 3.4 5.6 3.2 0 0 33-7.8 46.7-7.2-0.2 2.7-0.7 5.2-1.6 7.7q-0.5 1.5-1 2.7c-1.5-1.2-2.5-2.5-3-3.3-2.3 2.6-5.2 4.8-7.7 6.2-2.4 1.3-3.6 1.9-5.4 2.4 2.1 0.1 4.7 0.3 8.6-1.3 1.9-0.8 3.5-1.7 4.6-2.6z"/>
	</g>
	<path id="Layer" class="s0" d="m55.4 48.7c3.5-1 7.6-1.9 12.3-2.5 4.1-0.5 7.9-0.6 11.2-0.6 1.3 1.8 2.8 4.1 4.1 7 1.6 3.7 2.3 7 2.6 9.4-2.1-2.5-5.9-6.5-11.9-9.4-7.7-3.9-14.8-4-18.3-3.9z"/>
</svg>