<?xml version="1.0" encoding="utf-8"?>
<!-- Generator: Adobe Illustrator 26.1.0, SVG Export Plug-In . SVG Version: 6.00 Build 0)  -->
<svg version="1.1" id="Layer_1" xmlns="http://www.w3.org/2000/svg" xmlns:xlink="http://www.w3.org/1999/xlink" x="0px" y="0px"
	 viewBox="0 0 500 500" style="enable-background:new 0 0 500 500;" xml:space="preserve">
<style type="text/css">
	.st0{fill:#020203;}
</style>
<g>
	<path class="st0" d="M348.17,31.65c-11.82,3.94-37.69,14.41-58.26,40.33c-11.41,14.38-17.37,28.7-20.58,38.84
		c10.99,0.81,25.47,3.06,41.49,8.96c24.68,9.09,41.86,22.73,51.87,32.12c-3.52-11.77-6.75-24.74-9.29-38.84
		C347.83,82.23,347.04,54.53,348.17,31.65z"/>
</g>
<g>
	<path class="st0" d="M412.61,405.5c-19.58,8.05-32.55,7.13-43.14,6.42c9.02-2.56,15.22-5.4,26.97-11.99
		c12.72-7.14,27.02-18.17,38.46-30.93c2.78,4.24,7.68,10.64,15.33,16.6c1.64-4.23,3.26-8.7,4.85-13.43
		c4.41-12.43,7.02-25.42,7.87-38.57c-68.49-3.16-233.69,36.08-233.69,36.08c-12.97,0.99-26.51-0.54-27.71-16.4l-2.38-91.48
		c-1.11-14.53,5.53-21.33,16.84-24.11c3.05-0.75,6.09-1.49,9.08-2.48c15.35-5.09,103.59-26.1,162.75-24.99
		c-30.48-46.29-75.01-80.57-127.99-81.07c-1.75-0.02-4.48-1.42-7.44-3.39c-9.42-6.24-17.07-14.8-22.63-24.63
		c-6.59-11.66-13.39-25.89-19.04-42.6c-7.41-21.93-10.65-41.6-12.05-56.92c-58.47,56.33-92.94,111.61-112.76,149.45
		C61.21,198.25,42.39,235.29,44.11,287c1.82,54.5,25.45,94.91,32.2,106.14c5.28,8.79,22.51,37.01,53.32,60.78
		c7.23,5.58,32.09,24.35,70.6,35.74c101.7,30.1,184.86-19.58,195.12-27.62c0.04-0.03,0.1-0.08,0.15-0.12
		c17.18-13.73,34.18-29.82,49.43-63.64c-4.7-2.3-8.12-4.85-9.39-5.83C429.76,396.79,422.13,401.58,412.61,405.5z"/>
</g>
<path class="st0" d="M277.14,243.59c17.37-4.96,37.93-9.57,61.24-12.45c20.79-2.57,39.73-3.27,56.26-2.99
	c6.52,8.64,14.01,20.24,20.41,34.85c8,18.27,11.5,34.87,13.11,47.17c-10.52-12.62-29.88-32.49-59.91-47.42
	C329.85,243.67,294.49,242.84,277.14,243.59z"/>
</svg>
